<svg width="408" height="116" viewBox="0 0 408 116" fill="none" xmlns="http://www.w3.org/2000/svg">
<g clip-path="url(#clip0)">
<path d="M160.242 99.3477H168.154V100.771H158.739V85.8066H167.905V87.1985H160.242V92.2812H167.406V93.6731H160.242V99.3477Z" fill="#7C6A28"/>
<path d="M189.902 91.7773L194.036 85.8066H195.907L190.919 92.8921L196.337 100.771H194.354L189.84 94.0006L185.313 100.771H183.443L188.855 92.9236L183.867 85.8381H185.893L189.902 91.7773Z" fill="#7C6A28"/>
<path d="M212.661 85.8067H216.981C218.244 85.7365 219.494 86.0861 220.542 86.8018C220.952 87.1834 221.28 87.6469 221.504 88.1629C221.728 88.6789 221.843 89.2363 221.843 89.7997C221.843 90.3632 221.728 90.9205 221.504 91.4365C221.28 91.9526 220.952 92.416 220.542 92.7977C219.496 93.5182 218.245 93.8702 216.981 93.7991H214.182V100.727H212.679L212.661 85.8067ZM214.163 92.4072H216.589C217.163 92.419 217.736 92.3491 218.291 92.1993C218.695 92.0878 219.075 91.8973 219.407 91.6388C219.683 91.4241 219.898 91.1395 220.03 90.8137C220.157 90.4889 220.22 90.1425 220.217 89.7934C220.219 89.4506 220.156 89.1106 220.03 88.792C219.895 88.4663 219.681 88.1803 219.407 87.9607C219.079 87.695 218.698 87.5038 218.291 87.4001C217.735 87.2559 217.162 87.1881 216.589 87.1986H214.163V92.4072Z" fill="#7C6A28"/>
<path d="M240.344 99.3477H248.263V100.771H238.842V85.8066H248.007V87.1985H240.344V92.2812H247.534V93.6731H240.344V99.3477Z" fill="#7C6A28"/>
<path d="M266.925 100.771H265.422V85.8065H269.98C271.242 85.7373 272.492 86.0867 273.54 86.8016C273.981 87.156 274.331 87.6135 274.558 88.1347C274.785 88.656 274.883 89.2252 274.843 89.7932C274.866 90.7614 274.52 91.7016 273.877 92.4196C273.133 93.186 272.127 93.6365 271.065 93.6792L275.317 100.771H273.484L269.431 93.8429H266.937L266.925 100.771ZM266.925 92.4385H269.6C270.174 92.4503 270.747 92.3804 271.302 92.2306C271.706 92.1177 272.085 91.9274 272.418 91.6701C272.692 91.4535 272.907 91.1694 273.041 90.845C273.168 90.5202 273.231 90.1738 273.228 89.8247C273.23 89.4819 273.167 89.1419 273.041 88.8233C272.904 88.4989 272.69 88.2135 272.418 87.9919C272.089 87.7276 271.709 87.5365 271.302 87.4314C270.746 87.2872 270.173 87.2194 269.6 87.2299H266.925V92.4385Z" fill="#7C6A28"/>
<path d="M293.505 100.771H292.002V85.8066H293.505V100.771Z" fill="#7C6A28"/>
<path d="M313.214 99.3477H321.108V100.771H311.693V85.8066H320.858V87.1985H313.214V92.2812H320.372V93.6731H313.214V99.3477Z" fill="#7C6A28"/>
<path d="M348.979 98.4597H349.022V85.8066H350.525V100.771H348.654L339.813 87.9606V100.771H338.31V85.8066H340.181L348.979 98.4597Z" fill="#7C6A28"/>
<path d="M380.902 98.3776C380.637 98.7731 380.325 99.1347 379.973 99.4546C379.596 99.7989 379.177 100.093 378.726 100.33C378.238 100.579 377.723 100.774 377.192 100.909C376.623 101.05 376.039 101.12 375.453 101.117C374.403 101.128 373.363 100.927 372.391 100.525C371.474 100.154 370.641 99.5973 369.943 98.8903C369.246 98.1832 368.698 97.3403 368.332 96.4126C367.546 94.3883 367.546 92.1387 368.332 90.1144C368.698 89.1867 369.246 88.3437 369.943 87.6367C370.641 86.9297 371.474 86.3734 372.391 86.0017C373.363 85.5997 374.403 85.3984 375.453 85.4096C376.397 85.4149 377.333 85.6008 378.209 85.9576C379.142 86.3358 379.957 86.9627 380.566 87.7714L379.231 88.8043C379.054 88.5393 378.845 88.2981 378.608 88.0864C378.329 87.8423 378.024 87.631 377.697 87.4565C377.348 87.2714 376.98 87.1237 376.6 87.0157C376.221 86.9037 375.829 86.8465 375.434 86.8456C374.556 86.8312 373.685 87.0118 372.884 87.3747C372.156 87.7027 371.506 88.1836 370.976 88.7855C370.449 89.3862 370.041 90.0831 369.773 90.8387C369.215 92.43 369.215 94.1662 369.773 95.7575C370.039 96.5139 370.448 97.2111 370.976 97.8108C371.507 98.4127 372.157 98.8955 372.884 99.2279C373.687 99.5856 374.557 99.7639 375.434 99.7506C375.821 99.7527 376.207 99.7169 376.588 99.6435C376.976 99.5722 377.355 99.4538 377.716 99.2908C378.096 99.1139 378.449 98.8827 378.764 98.6043C379.115 98.2867 379.42 97.9197 379.668 97.5147L380.902 98.3776Z" fill="#7C6A28"/>
<path d="M399.127 99.3477H407.04V100.771H397.625V85.8066H406.79V87.1985H399.127V92.2812H406.292V93.6731H399.127V99.3477Z" fill="#7C6A28"/>
<path d="M156.856 15.6445H161.845V55.6191H186.71V60.2735H156.856V15.6445Z" fill="#7C6A28"/>
<path d="M264.063 60.2735H258.7L253.525 48.4959H229.452L224.214 60.2924H219.101L239.234 15.3423H243.905L264.063 60.2735ZM241.535 21.2248L231.434 43.9801H251.568L241.535 21.2248Z" fill="#7C6A28"/>
<path d="M312.852 35.5346C322.698 37.7012 327.243 41.3352 327.243 48.2191C327.243 55.9344 320.933 60.91 312.16 60.91C305.152 60.91 299.409 58.5482 294.11 53.7678L297.227 50.0708C301.835 54.278 306.249 56.369 312.372 56.369C318.302 56.369 322.217 53.2199 322.217 48.7167C322.217 44.5095 320.01 42.154 310.732 40.1763C300.532 37.9594 295.874 34.6402 295.874 27.2462C295.874 20.1103 301.997 15.0088 310.389 15.0088C316.83 15.0088 321.432 16.8542 325.915 20.4882L323.016 24.3805C318.913 20.9984 314.81 19.5309 310.265 19.5309C304.522 19.5309 300.862 22.7241 300.862 26.799C300.862 31.0755 303.132 33.431 312.852 35.5346Z" fill="#7C6A28"/>
<path d="M385.404 61.0359C371.961 61.0359 362.958 50.392 362.958 38.0224C362.958 25.6527 372.111 14.8828 385.554 14.8828C398.997 14.8828 408 25.5268 408 37.8964C408 50.266 398.847 61.0359 385.404 61.0359ZM385.404 19.5309C375.309 19.5309 368.114 27.7185 368.114 37.8964C368.114 48.0743 375.434 56.3816 385.535 56.3816C395.636 56.3816 402.825 48.1939 402.825 38.0224C402.825 27.8508 395.505 19.5246 385.404 19.5246V19.5309Z" fill="#7C6A28"/>
<path d="M1.35932 68.3982C1.29073 68.0896 -0.180753 60.7648 3.74112 54.6997C5.71765 51.645 8.79155 45.7122 7.08937 40.5162C5.99342 37.375 6.02211 33.9452 7.17043 30.8232L8.7292 31.5286L7.94982 31.1759L8.7292 31.5223C7.78157 34.2563 7.78157 37.2343 8.7292 39.9682C10.6558 45.857 7.33878 52.319 5.18767 55.6444C1.65237 61.0923 3.01785 67.9762 3.03656 68.0203L1.35932 68.3982Z" fill="#7C6A28"/>
<path d="M25.6762 106.313C25.2335 105.872 14.7648 95.5056 15.8372 84.7924C16.3235 79.8861 19.1356 75.7482 24.186 72.492C37.2361 64.0713 43.3153 59.5115 38.9756 47.9732C36.9991 42.7205 34.3928 34.8604 34.6111 27.3592C34.8044 19.5243 38.0341 13.352 44.2318 8.9811C52.3749 3.22456 62.6566 1.46737 73.9608 3.89847C79.0979 4.98603 84.0521 6.81891 88.6694 9.3401L89.2118 9.65501L89.2991 10.2848C89.2991 10.3919 90.8392 21.4893 95.4345 27.693C98.9324 32.4041 103.097 34.5706 106.439 36.3089C108.996 37.6379 111.01 38.6897 111.783 40.4972C113.215 43.9445 114.101 47.5981 114.408 51.3238L111.839 51.475C111.545 48.0518 110.729 44.695 109.42 41.5238C109.015 40.5728 107.275 39.6659 105.267 38.6204C101.875 36.8569 97.2302 34.4384 93.3831 29.2487C89.0186 23.3473 87.254 13.8811 86.8487 11.2862C83.2698 9.39678 62.4446 -0.724405 45.6971 11.1036C33.2269 19.9211 36.8183 34.9548 41.3762 47.0473C46.6573 61.0923 37.8097 66.7607 25.5639 74.6775C21.1994 77.4676 18.7989 80.9757 18.3936 85.0254C17.4458 94.4727 27.3659 104.329 27.4657 104.424L25.6762 106.313Z" fill="#7C6A28"/>
<path d="M57.4191 116C46.0626 116 34.9613 112.598 25.5188 106.225C16.0762 99.8522 8.7167 90.7938 4.37079 80.1957C0.0248788 69.5976 -1.11221 57.9357 1.10332 46.6848C3.31884 35.4339 8.78748 25.0993 16.8177 16.9878C24.8479 8.87639 35.079 3.35242 46.2172 1.11448C57.3554 -1.12346 68.9004 0.0251306 79.3924 4.41501C89.8843 8.8049 98.852 16.2389 105.161 25.777C111.471 35.315 114.838 46.5287 114.838 58C114.822 73.3775 108.767 88.1203 98.0022 98.9938C87.2376 109.867 72.6425 115.983 57.4191 116ZM57.4191 2.59488C46.567 2.59488 35.9587 5.84544 26.9355 11.9355C17.9124 18.0256 10.8797 26.6816 6.72683 36.8091C2.57393 46.9365 1.48734 58.0804 3.60447 68.8316C5.7216 79.5828 10.9474 89.4585 18.6209 97.2097C26.2945 104.961 36.0712 110.239 46.7147 112.378C57.3582 114.517 68.3905 113.419 78.4165 109.224C88.4425 105.029 97.0118 97.9253 103.041 88.8109C109.07 79.6964 112.288 68.9808 112.288 58.0189C112.276 43.3231 106.492 29.2326 96.2045 18.8411C85.9171 8.44961 71.9677 2.60656 57.4191 2.59488Z" fill="#7C6A28"/>
<path d="M19.123 101.218C18.7052 100.802 8.77272 90.9836 9.38376 80.6546C9.65187 76.1451 11.8778 72.2591 16.0054 69.1037C18.3187 67.3276 20.4324 65.8854 22.2966 64.6068C27.0104 61.3822 30.1217 59.2534 31.1941 55.5059C31.9361 52.8859 31.032 49.932 29.8848 46.1909C28.326 41.1524 26.3869 34.8227 27.3907 25.9486C28.1389 19.1654 32.8464 12.3445 39.9856 7.68382C45.803 3.90491 58.2545 -1.54932 76.3113 4.43395L75.4758 6.92804C58.4291 1.25967 46.7944 6.3612 41.3449 9.89448C34.9477 14.045 30.5519 20.3117 29.9284 26.232C29.0181 34.5645 30.8637 40.5855 32.3476 45.4226C33.5947 49.4093 34.6359 52.8544 33.6757 56.2239C32.3476 60.872 28.7437 63.3409 23.7494 66.7545C21.9163 68.0141 19.8276 69.4438 17.5704 71.1632C14.0726 73.84 12.1833 77.0835 11.9589 80.8058C11.4164 89.957 20.8252 99.2531 20.9187 99.3413L19.123 101.218Z" fill="#7C6A28"/>
<path d="M7.48216 86.5877C7.3824 86.4492 0.47391 72.4735 11.2232 62.7428C12.8096 61.3407 14.4751 60.0327 16.2113 58.8253C21.586 54.9582 23.8181 53.3585 19.4536 40.0378C16.9595 32.48 18.4996 23.9963 23.6311 16.8164C30.8388 6.73931 43.9949 0.963867 59.7261 0.963867V3.55872C44.8304 3.55872 32.435 8.94997 25.7136 18.3406C21.0684 24.834 19.678 32.4422 21.8977 39.2191C26.6426 53.7049 23.8805 56.495 17.7015 60.9415C16.0452 62.0921 14.4567 63.3391 12.9441 64.6763C3.62887 73.0907 9.65821 85.2777 9.72056 85.4037L7.48216 86.5877Z" fill="#7C6A28"/>
<path d="M2.75586 75.7233C2.69351 75.2888 1.28438 65.0164 7.05185 59.0583C14.64 51.2549 13.1061 45.0386 11.7469 39.534C11.5099 38.5766 11.2855 37.6445 11.1234 36.7817C10.5408 33.6706 10.5919 30.4721 11.2737 27.3817C11.9555 24.2912 13.2537 21.3735 15.0889 18.8066L17.0966 20.4316L16.0865 19.638L17.0904 20.4505C15.5029 22.7307 14.3805 25.3071 13.7885 28.0298C13.1965 30.7525 13.1468 33.567 13.6424 36.3093C13.7982 37.1344 14.0165 38.0035 14.2659 38.923C15.5877 44.4591 17.4582 52.0422 8.88497 60.8785C4.00288 65.9171 5.28731 75.2573 5.29979 75.3643L2.75586 75.7233Z" fill="#7C6A28"/>
<path d="M114.838 58.0505L112.269 57.9434C112.381 55.0588 111.858 49.7558 107.094 46.9468C106.29 46.4618 105.224 45.9202 103.977 45.2966C98.5333 42.5884 89.4176 38.0474 85.3461 28.7954C82.3648 21.9392 80.854 14.5233 80.9129 7.03516L83.4818 7.14223C83.4649 14.2295 84.9 21.2437 87.6967 27.7436C91.3879 36.1328 99.6494 40.2455 105.111 42.9663C106.414 43.5961 107.543 44.1756 108.435 44.7109C112.724 47.2932 115.069 52.1554 114.838 58.0505Z" fill="#7C6A28"/>
<path d="M44.2692 112.851C43.3759 112.851 42.4831 112.805 41.5944 112.712C38.962 112.459 36.3747 111.853 33.9003 110.911L34.8729 108.511C37.1425 109.357 39.5106 109.903 41.9186 110.136C47.1436 110.64 51.502 109.551 54.8689 106.887C59.6699 103.108 63.1678 97.3007 66.5473 91.7079C69.2533 87.2236 71.8097 82.9912 74.9833 79.7413C80.0026 74.5831 87.8838 74.073 94.8359 73.6447C98.2714 73.4306 101.526 73.2227 103.989 72.4732C110.779 70.4137 112.095 62.3961 112.095 62.3521L114.639 62.7614C114.576 63.1519 113.017 72.4354 104.7 74.961C101.95 75.7987 98.5583 76.0128 94.9606 76.2207C88.4699 76.63 81.1124 77.0898 76.7915 81.5426C73.8174 84.5972 71.3358 88.71 68.6859 93.0557C65.2129 98.8815 61.5966 104.84 56.4277 108.959C53.1667 111.516 48.9892 112.851 44.2692 112.851Z" fill="#7C6A28"/>
<path d="M47.206 114.47C45.2731 114.47 43.9451 114.35 43.7954 114.337L44.0261 111.749C44.1196 111.749 53.6718 112.58 59.14 109.639C64.0096 107.019 68.1809 102.755 72.6639 95.7829C73.2874 94.8633 73.7925 94.0194 74.2851 93.2636C77.4026 88.3636 78.9302 85.9073 84.149 82.9472C86.88 81.4041 89.9601 80.9632 93.2211 80.4909C97.1492 79.924 101.208 79.3383 104.906 76.712C108.329 74.2934 111.309 68.5243 111.34 68.4487L113.622 69.6391C113.491 69.8973 110.318 76.0569 106.377 78.8407C102.175 81.8135 97.6106 82.4685 93.5827 83.0479C90.5649 83.4825 87.7155 83.8919 85.4085 85.2019C80.7509 87.8408 79.4914 89.8311 76.4486 94.6492C75.9561 95.4302 75.4198 96.2804 74.8213 97.2062C70.0826 104.537 65.6183 109.072 60.3496 111.906C56.3654 114.073 50.7663 114.47 47.206 114.47Z" fill="#7C6A28"/>
<path d="M53.6218 114.47H52.9983L53.0918 111.875C53.2041 111.875 64.5706 112.209 71.7971 106.609C74.7415 104.363 77.3188 101.664 79.4351 98.6107C81.0609 96.2358 83.0062 94.1012 85.215 92.2685C90.4775 87.9857 94.1624 87.4378 98.4335 86.8079C99.057 86.7135 99.6805 86.619 100.366 86.5056C103.284 86.0207 106.177 83.6211 106.807 82.248L109.139 83.3439C108.117 85.5609 104.438 88.4581 100.784 89.069C100.104 89.1823 99.4498 89.2831 98.8076 89.3776C94.7485 89.9759 91.5437 90.4546 86.8237 94.2902C84.7866 95.9908 82.9925 97.9684 81.4927 100.166C79.2411 103.406 76.5069 106.274 73.3871 108.669C66.3165 114.092 56.278 114.47 53.6218 114.47Z" fill="#7C6A28"/>
<path d="M78.6059 111.919L77.7891 109.456L78.1944 110.716L77.7828 109.456C77.8327 109.456 82.4779 107.812 84.9657 103.788C86.4808 101.325 87.6717 99.3792 89.2804 97.8865C90.6956 96.4567 92.4393 95.4029 94.3557 94.8193C94.8545 94.6367 95.4219 94.4288 96.0829 94.1895L96.2886 94.1013C98.2402 93.3077 100.447 92.4071 101.458 91.0845L103.49 92.6716C102.056 94.5611 99.5059 95.594 97.2551 96.5135L97.0493 96.5954C96.3447 96.8851 95.7524 97.0992 95.2286 97.2945C93.6391 97.7609 92.193 98.6278 91.0262 99.8138C89.6732 101.073 88.5322 102.887 87.1542 105.18C84.1738 109.992 78.8303 111.843 78.6059 111.919Z" fill="#7C6A28"/>
<path d="M106.352 31.9946C94.2809 29.1604 94.0128 16.2932 94.0128 16.1672L96.5817 16.1357C96.5817 16.5829 96.8498 27.1009 106.932 29.4627L106.352 31.9946Z" fill="#7C6A28"/>
</g>
<defs>
<clipPath id="clip0">
<rect width="408" height="116" fill="white"/>
</clipPath>
</defs>
</svg>
